HIERARCHY
ROOT Hips
{
	OFFSET 0.00000 0.00000 0.00000
	CHANNELS 6 Xposition Yposition Zposition Zrotation Yrotation Xrotation 
	JOINT LHipJoint
	{
		OFFSET 0 0 0
		CHANNELS 3 Zrotation Yrotation Xrotation
		JOINT LeftUpLeg
		{
			OFFSET 2.36090 -1.39315 1.24752
			CHANNELS 3 Zrotation Yrotation Xrotation
			JOINT LeftLeg
			{
				OFFSET 2.06810 -5.68207 0.00000
				CHANNELS 3 Zrotation Yrotation Xrotation
				JOINT LeftFoot
				{
					OFFSET 2.46631 -6.77613 0.00000
					CHANNELS 3 Zrotation Yrotation Xrotation
					JOINT LeftToeBase
					{
						OFFSET 0.26031 -0.71520 1.99545
						CHANNELS 3 Zrotation Yrotation Xrotation
						End Site
						{
							OFFSET 0.00000 -0.00000 1.05957
						}
					}
				}
			}
		}
	}
	JOINT RHipJoint
	{
		OFFSET 0 0 0
		CHANNELS 3 Zrotation Yrotation Xrotation
		JOINT RightUpLeg
		{
			OFFSET -2.25243 -1.39315 1.24752
			CHANNELS 3 Zrotation Yrotation Xrotation
			JOINT RightLeg
			{
				OFFSET -2.17343 -5.97145 0.00000
				CHANNELS 3 Zrotation Yrotation Xrotation
				JOINT RightFoot
				{
					OFFSET -2.52372 -6.93386 0.00000
					CHANNELS 3 Zrotation Yrotation Xrotation
					JOINT RightToeBase
					{
						OFFSET -0.22538 -0.61923 2.11447
						CHANNELS 3 Zrotation Yrotation Xrotation
						End Site
						{
							OFFSET -0.00000 -0.00000 1.10506
						}
					}
				}
			}
		}
	}
	JOINT LowerBack
	{
		OFFSET 0 0 0
		CHANNELS 3 Zrotation Yrotation Xrotation
		JOINT Spine
		{
			OFFSET 0.01594 2.13103 0.08007
			CHANNELS 3 Zrotation Yrotation Xrotation
			JOINT Spine1
			{
				OFFSET 0.01393 2.09723 0.18338
				CHANNELS 3 Zrotation Yrotation Xrotation
				JOINT Neck
				{
					OFFSET 0 0 0
					CHANNELS 3 Zrotation Yrotation Xrotation
					JOINT Neck1
					{
						OFFSET 0.05351 1.38915 0.32494
						CHANNELS 3 Zrotation Yrotation Xrotation
						JOINT Head
						{
							OFFSET 0.00711 1.45992 -0.21666
							CHANNELS 3 Zrotation Yrotation Xrotation
							End Site
							{
								OFFSET -0.00433 1.47702 -0.11056
							}
						}
					}
				}
				JOINT LeftShoulder
				{
					OFFSET 0 0 0
					CHANNELS 3 Zrotation Yrotation Xrotation
					JOINT LeftArm
					{
						OFFSET 2.87198 0.92249 0.11132
						CHANNELS 3 Zrotation Yrotation Xrotation
						JOINT LeftForeArm
						{
							OFFSET 5.52731 -0.00000 0.00000
							CHANNELS 3 Zrotation Yrotation Xrotation
							JOINT LeftHand
							{
								OFFSET 3.11059 -0.00000 0.00000
								CHANNELS 3 Zrotation Yrotation Xrotation
								JOINT LeftFingerBase
								{
									OFFSET 0 0 0
									CHANNELS 3 Zrotation Yrotation Xrotation
									JOINT LeftHandIndex1
									{
										OFFSET 0.41963 -0.00000 0.00000
										CHANNELS 3 Zrotation Yrotation Xrotation
										End Site
										{
											OFFSET 0.33831 -0.00000 0.00000
										}
									}
								}
								JOINT LThumb
								{
									OFFSET 0 0 0
									CHANNELS 3 Zrotation Yrotation Xrotation
									End Site
									{
										OFFSET 0.34348 -0.00000 0.34348
									}
								}
							}
						}
					}
				}
				JOINT RightShoulder
				{
					OFFSET 0 0 0
					CHANNELS 3 Zrotation Yrotation Xrotation
					JOINT RightArm
					{
						OFFSET -2.94710 0.68072 0.32187
						CHANNELS 3 Zrotation Yrotation Xrotation
						JOINT RightForeArm
						{
							OFFSET -5.25396 -0.00000 -0.00000
							CHANNELS 3 Zrotation Yrotation Xrotation
							JOINT RightHand
							{
								OFFSET -3.10567 -0.00000 0.00000
								CHANNELS 3 Zrotation Yrotation Xrotation
								JOINT RightFingerBase
								{
									OFFSET 0 0 0
									CHANNELS 3 Zrotation Yrotation Xrotation
									JOINT RightHandIndex1
									{
										OFFSET -0.49868 -0.00000 0.00000
										CHANNELS 3 Zrotation Yrotation Xrotation
										End Site
										{
											OFFSET -0.40204 -0.00000 0.00000
										}
									}
								}
								JOINT RThumb
								{
									OFFSET 0 0 0
									CHANNELS 3 Zrotation Yrotation Xrotation
									End Site
									{
										OFFSET -0.40818 -0.00000 0.40818
									}
								}
							}
						}
					}
				}
			}
		}
	}
}
MOTION
Frames: 6
Frame Time: .0083333
5.9069 16.3533 -25.1090 158.4790 -102.8500 -137.8630 0.0000 0.0000 0.0000 -4.3998 -20.7586 -30.6378 1.9431 8.7465 25.0055 0.3995 -2.8603 -11.2976 1.5832 -7.9378 -22.5254 0.0000 0.0000 0.0000 10.7003 23.3780 -24.3769 -3.1214 -10.8890 31.9064 -0.0294 -11.5709 -16.8706 -0.7486 5.5265 -15.4164 -8.0934 -1.8261 -11.4731 0.5698 -2.0181 -7.6233 4.9438 -0.8552 -1.3411 9.7517 10.2237 -14.3145 -5.2337 12.8493 17.2468 -1.7332 6.1777 8.7154 0.0000 0.0000 0.0000 -79.5837 0.3292 29.1602 17.5715 -27.6050 -4.3488 -0.0000 0.0000 -38.3586 22.5079 -5.1133 -2.1151 -7.1250 0.0000 -0.0000 -3.1134 24.4479 1.5479 0.0000 0.0000 0.0000 82.8493 -19.6768 3.9786 -14.2328 23.0665 -2.9187 0.0000 -0.0000 -10.2155 -10.2614 -19.2288 3.4121 7.1250 -0.0000 -0.0000 17.4830 -48.6879 -1.6363
5.9167 16.3613 -25.0506 158.1510 -102.6740 -137.4360 0.0000 0.0000 0.0000 -4.6575 -20.7076 -30.6305 1.9248 8.7076 24.8850 0.3948 -2.7612 -11.2392 1.5995 -7.9767 -22.6435 0.0000 0.0000 0.0000 10.3186 23.6432 -25.0627 -3.2851 -11.1428 32.7632 0.0174 -11.7541 -16.4836 -0.6732 5.2466 -14.6131 -8.4610 -1.7757 -11.4232 0.4262 -1.9247 -7.6273 5.0113 -0.7970 -1.3872 9.4467 10.1131 -14.4794 -4.9372 12.6837 17.1427 -1.6086 6.1081 8.6538 -0.0000 0.0000 0.0000 -79.6610 -0.0182 28.9866 17.5968 -27.6378 -4.3606 -0.0000 0.0000 -38.1835 22.7105 -5.2577 -2.1963 -7.1250 0.0000 -0.0000 -2.9626 24.2837 1.4840 -0.0000 0.0000 0.0000 82.6118 -19.8357 4.9563 -14.1066 22.8869 -2.8694 0.0000 -0.0000 -9.6948 -9.0311 -19.0557 2.9705 7.1250 -0.0000 -0.0000 18.5480 -48.3474 -1.5822
5.9285 16.3698 -24.9958 157.8570 -102.4890 -137.0140 0.0000 0.0000 0.0000 -4.9138 -20.6082 -30.6643 1.9023 8.6595 24.7359 0.3887 -2.7110 -11.1545 1.6094 -8.0002 -22.7146 0.0000 0.0000 0.0000 9.9212 23.9476 -25.8162 -3.4620 -11.4078 33.6680 0.0656 -11.9902 -16.1429 -0.5633 4.8070 -13.3590 -8.8483 -1.7397 -11.3730 0.2800 -1.8521 -7.6516 5.0847 -0.7476 -1.4531 9.1820 10.0322 -14.6395 -4.6288 12.5503 17.0672 -1.4811 6.0573 8.6064 0.0000 -0.0000 0.0000 -79.7066 -0.3140 28.8108 17.6279 -27.6781 -4.3750 -0.0000 0.0000 -38.0440 22.9430 -5.4238 -2.2913 -7.1250 0.0000 -0.0000 -2.7901 24.0940 1.4096 0.0000 -0.0000 0.0000 82.3934 -19.9831 5.9331 -14.0279 22.7746 -2.8389 0.0000 -0.0000 -9.1173 -7.8122 -18.8973 2.5443 7.1250 -0.0000 -0.0000 19.5991 -48.0270 -1.5184
5.9412 16.3793 -24.9451 157.5530 -102.2950 -136.5630 0.0000 0.0000 0.0000 -5.1596 -20.4672 -30.7233 1.8772 8.6054 24.5686 0.3820 -2.7057 -11.0564 1.6085 -7.9981 -22.7083 0.0000 0.0000 0.0000 9.5319 24.2817 -26.6091 -3.6483 -11.6770 34.5988 0.1181 -12.2989 -15.8408 -0.4355 4.2350 -11.7386 -9.2633 -1.7073 -11.3212 0.1374 -1.7850 -7.6932 5.1768 -0.6988 -1.5385 8.9602 9.9545 -14.7677 -4.3479 12.4210 16.9917 -1.3701 6.0091 8.5595 0.0000 0.0000 0.0000 -79.7385 -0.5649 28.6417 17.6603 -27.7201 -4.3901 -0.0000 0.0000 -37.9246 23.2182 -5.5952 -2.3950 -7.1250 0.0000 -0.0000 -2.5868 23.8959 1.3185 0.0000 0.0000 0.0000 82.2000 -20.1360 6.8695 -14.0062 22.7436 -2.8305 0.0000 -0.0000 -8.5036 -6.6263 -18.7684 2.1405 7.1250 -0.0000 -0.0000 20.6235 -47.7431 -1.4544
5.9542 16.3889 -24.8966 157.2390 -102.0940 -136.1110 0.0000 0.0000 0.0000 -5.4075 -20.3070 -30.7760 1.8511 8.5488 24.3939 0.3753 -2.7222 -10.9542 1.5879 -7.9491 -22.5596 0.0000 0.0000 0.0000 9.1629 24.6154 -27.4002 -3.8394 -11.9436 35.5326 0.1759 -12.6728 -15.5622 -0.3082 3.5691 -9.8675 -9.6920 -1.6755 -11.2515 0.0087 -1.7213 -7.7428 5.2909 -0.6496 -1.6425 8.7513 9.8742 -14.8577 -4.1091 12.2979 16.9074 -1.2758 5.9613 8.5079 -0.0000 0.0000 0.0000 -79.7739 -0.7690 28.5250 17.6980 -27.7687 -4.4076 -0.0000 0.0000 -37.8931 23.5230 -5.7469 -2.4958 -7.1250 0.0000 -0.0000 -2.3621 23.7169 1.2135 -0.0000 0.0000 0.0000 82.0083 -20.2921 7.7349 -14.0398 22.7916 -2.8435 0.0000 -0.0000 -7.8484 -5.4696 -18.6602 1.7548 7.1250 -0.0000 -0.0000 21.6220 -47.4856 -1.3881
5.9656 16.3977 -24.8478 156.8640 -101.8820 -135.6570 0.0000 0.0000 0.0000 -5.6696 -20.1725 -30.7446 1.8257 8.4932 24.2224 0.3697 -2.6919 -10.8726 1.5527 -7.8647 -22.3039 0.0000 0.0000 0.0000 8.8390 24.9361 -28.1156 -4.0317 -12.2025 36.4522 0.2387 -13.1067 -15.3073 -0.1958 2.8495 -7.8600 -10.0962 -1.6333 -11.1609 -0.1148 -1.6468 -7.7719 5.3974 -0.5958 -1.7387 8.5102 9.7837 -14.9504 -3.8666 12.1682 16.8312 -1.1763 5.9086 8.4572 -0.0000 0.0000 0.0000 -79.8078 -0.9468 28.4411 17.7333 -27.8143 -4.4241 -0.0000 0.0000 -37.9306 23.8628 -5.8983 -2.6028 -7.1250 0.0000 -0.0000 -2.1125 23.5355 1.0939 -0.0000 0.0000 0.0000 81.8233 -20.4349 8.5243 -14.1239 22.9115 -2.8762 0.0000 -0.0000 -7.1845 -4.3708 -18.5617 1.3938 7.1250 -0.0000 -0.0000 22.5654 -47.2476 -1.3160
